<svg width="20" height="22" viewBox="0 0 20 22" fill="none" xmlns="http://www.w3.org/2000/svg">
<path d="M6 8.93213H14M6 12.9321H14M6 16.9321H10M6 2.93213C6 4.0367 6.89543 4.93213 8 4.93213H12C13.1046 4.93213 14 4.0367 14 2.93213M6 2.93213C6 1.82756 6.89543 0.932129 8 0.932129H12C13.1046 0.932129 14 1.82756 14 2.93213M6 2.93213H5C2.79086 2.93213 1 4.72299 1 6.93213V16.9321C1 19.1413 2.79086 20.9321 5 20.9321H15C17.2091 20.9321 19 19.1413 19 16.9321V6.93213C19 4.72299 17.2091 2.93213 15 2.93213H14" stroke="white" stroke-opacity="0.81" stroke-width="1.5" stroke-linecap="round"/>
</svg>
