<svg width="11" height="12" viewBox="0 0 11 12" fill="none" xmlns="http://www.w3.org/2000/svg">
<path d="M4.96245 0.982999C5.13961 0.450003 5.86041 0.450003 6.03757 0.982999L6.97565 3.80524C7.0538 4.04037 7.26363 4.1998 7.50161 4.20487L10.3582 4.26574C10.8976 4.27724 11.1204 4.99413 10.6904 5.33504L8.41361 7.14016C8.22393 7.29054 8.14378 7.5485 8.21271 7.78676L9.04006 10.6466C9.19632 11.1867 8.61318 11.6298 8.17028 11.3075L5.82507 9.60087C5.62969 9.45869 5.37033 9.45869 5.17495 9.60087L2.82974 11.3075C2.38684 11.6298 1.8037 11.1867 1.95995 10.6466L2.78731 7.78676C2.85624 7.5485 2.77609 7.29055 2.58641 7.14016L0.309639 5.33504C-0.120341 4.99413 0.102396 4.27724 0.641868 4.26574L3.4984 4.20487C3.73639 4.1998 3.94622 4.04037 4.02437 3.80524L4.96245 0.982999Z" fill="white"/>
</svg>
